<svg width="70" height="70" viewBox="0 0 70 70" fill="none" xmlns="http://www.w3.org/2000/svg">
<g opacity="0.8" clip-path="url(#clip0_230:101)">
<path d="M9.10121 28.8683C9.10121 30.815 9.8593 32.6451 11.236 34.0218C11.4875 34.2733 11.7544 34.5044 12.0357 34.7145C10.2121 36.0681 9.10128 38.2159 9.10128 40.5636C9.10128 42.5106 9.85943 44.341 11.2362 45.7178C12.613 47.0945 14.4434 47.8527 16.3903 47.8528C18.2153 47.8528 19.9614 47.175 21.3074 45.9443C22.4245 44.9227 23.188 43.5937 23.5086 42.1359L46.3108 42.1358C46.5412 43.6669 47.2524 45.0822 48.364 46.1938C49.7406 47.5704 51.5709 48.3285 53.5176 48.3285C55.4645 48.3284 57.295 47.5703 58.6718 46.1936C60.0486 44.8168 60.8067 42.9863 60.8067 41.0394C60.8067 39.0927 60.0486 37.2626 58.672 35.886C58.4205 35.6345 58.1536 35.4034 57.8723 35.1933C59.6959 33.8397 60.8067 31.6919 60.8067 29.3442C60.8067 27.3972 60.0486 25.5669 58.6717 24.1901C57.295 22.8134 55.4646 22.0551 53.5176 22.0551C51.5969 22.0551 49.7841 22.7958 48.4134 24.1408C47.2727 25.26 46.5443 26.6927 46.3107 28.2478H23.6535C23.51 26.5349 22.7738 24.9436 21.5444 23.7142C20.1677 22.3375 18.3372 21.5793 16.3904 21.5793C12.3711 21.5794 9.10128 24.8492 9.10121 28.8683ZM16.3902 23.5104C17.8214 23.5105 19.1668 24.0678 20.1788 25.0798C21.1908 26.0918 21.7482 27.4373 21.7483 28.8685C21.7482 28.9634 21.7455 29.0619 21.7401 29.1612C21.7257 29.4259 21.8208 29.6849 22.0032 29.8774C22.1864 30.0705 22.439 30.1789 22.7042 30.179L47.1959 30.1791C47.7215 30.1791 48.1506 29.7587 48.1613 29.2331C48.2199 26.3401 50.6229 23.9864 53.5177 23.9863C54.9489 23.9864 56.2944 24.5437 57.3063 25.5557C58.3183 26.5676 58.8756 27.9131 58.8756 29.3442C58.8757 31.5232 57.5738 33.4682 55.5593 34.2993C55.1979 34.4484 54.962 34.8009 54.9619 35.1918C54.9619 35.4531 55.0672 35.6971 55.2448 35.8747C55.3331 35.963 55.4393 36.0349 55.5592 36.0844C56.2146 36.3548 56.8025 36.7474 57.3064 37.2514C58.3183 38.2633 58.8755 39.6085 58.8755 41.0393C58.8755 42.4707 58.3182 43.8161 57.3062 44.8281C56.2943 45.84 54.9488 46.3974 53.5176 46.3974C52.0865 46.3975 50.7412 45.8402 49.7294 44.8283C48.7463 43.8452 48.1893 42.5392 48.1612 41.1507C48.1505 40.6253 47.7215 40.2047 47.1958 40.2048L22.6845 40.2047C22.1867 40.2047 21.7705 40.5832 21.7233 41.0788C21.4606 43.8396 19.1678 45.9217 16.3902 45.9217C14.959 45.9217 13.6135 45.3643 12.6016 44.3524C11.5896 43.3404 11.0323 41.995 11.0323 40.5637C11.0323 38.3847 12.3341 36.4398 14.3487 35.6087C14.7101 35.4595 14.946 35.1071 14.946 34.716C14.9461 34.325 14.7101 33.9726 14.3487 33.8233C13.6933 33.553 13.1054 33.1602 12.6014 32.6562C11.5896 31.6444 11.0323 30.2992 11.0323 28.8683C11.0324 25.914 13.436 23.5104 16.3902 23.5104Z" fill="url(#paint0_linear_230:101)"/>
<path d="M37.1335 37.7907C37.1335 38.3239 37.5659 38.7562 38.0991 38.7562L44.4673 38.7563C45.0005 38.7563 45.4328 38.324 45.4328 37.7908C45.4328 37.5241 45.3248 37.2828 45.15 37.108C44.9753 36.9333 44.7339 36.8253 44.4673 36.8253L38.0992 36.8252C37.5659 36.8251 37.1337 37.2573 37.1335 37.7907Z" fill="url(#paint1_linear_230:101)"/>
<path d="M34.2322 37.7907C34.2322 38.3239 34.6645 38.7562 35.1977 38.7562L35.2291 38.7562C35.7623 38.7562 36.1947 38.3238 36.1947 37.7906C36.1947 37.5239 36.0866 37.2826 35.9119 37.1079C35.7372 36.9332 35.4958 36.8252 35.2292 36.8251L35.1978 36.8252C34.6645 36.8251 34.2322 37.2575 34.2322 37.7907Z" fill="url(#paint2_linear_230:101)"/>
</g>
<defs>
<linearGradient id="paint0_linear_230:101" x1="17.7144" y1="52.1959" x2="52.196" y2="17.7143" gradientUnits="userSpaceOnUse">
<stop stop-color="#5B62FF"/>
<stop offset="1" stop-color="#62AAFF"/>
</linearGradient>
<linearGradient id="paint1_linear_230:101" x1="39.0084" y1="40.0655" x2="43.5579" y2="35.5159" gradientUnits="userSpaceOnUse">
<stop stop-color="#5B62FF"/>
<stop offset="1" stop-color="#62AAFF"/>
</linearGradient>
<linearGradient id="paint2_linear_230:101" x1="34.5228" y1="38.4812" x2="35.904" y2="37.1" gradientUnits="userSpaceOnUse">
<stop stop-color="#5B62FF"/>
<stop offset="1" stop-color="#62AAFF"/>
</linearGradient>
<clipPath id="clip0_230:101">
<rect width="49.4339" height="49.4339" fill="white" transform="translate(34.9551 69.9102) rotate(-135)"/>
</clipPath>
</defs>
</svg>
