<svg width="20" height="20" viewBox="0 0 20 20" fill="none" xmlns="http://www.w3.org/2000/svg">
<path d="M9.77012 1.20001C9.22481 1.20313 8.67793 1.23594 8.12637 1.30313C7.07168 1.43282 6.02637 1.64844 5.02324 2.10938C3.42793 2.84219 2.29668 4.08594 1.96856 5.89376C1.82949 6.65626 1.71699 7.42969 1.65293 8.20782C1.52949 9.71876 1.60606 11.2344 2.03418 12.7234C2.37168 13.8969 2.99356 14.9516 4.08262 15.6359C4.54356 15.925 5.15137 16.0656 5.46856 16.2125C5.55762 16.2547 5.57949 16.2797 5.58418 16.2859C5.58887 16.2906 5.60137 16.3016 5.59981 16.3953C5.58887 17.3516 5.59981 19.2016 5.59981 19.2016L5.60137 19.6H6.31543L6.43106 19.4875C6.43106 19.4875 8.24512 17.7422 8.90137 17.0234C9.02012 16.8953 9.08106 16.8234 9.09356 16.8156C9.10449 16.8078 9.08574 16.8031 9.20762 16.8C10.0686 16.7828 10.9279 16.75 11.7873 16.7031C12.9201 16.6406 14.0748 16.5328 15.1857 16.0688C16.1529 15.6641 16.9607 15.0031 17.4498 14.0125C17.9498 12.9969 18.217 11.9203 18.317 10.8063C18.4826 8.95157 18.4248 7.09376 17.9123 5.26251C17.6107 4.18907 17.0045 3.28126 16.0748 2.64063C14.9623 1.87501 13.7076 1.58751 12.4795 1.40469C11.7623 1.29844 11.0404 1.22813 10.3154 1.20626C10.1342 1.20157 9.95293 1.19844 9.77012 1.20001ZM10.2936 2.00626C10.9826 2.02501 11.6717 2.09219 12.3623 2.19532C13.5467 2.37188 14.6639 2.64063 15.6217 3.30001C16.3982 3.83438 16.8826 4.55626 17.142 5.47657C17.6201 7.18907 17.6811 8.94376 17.5201 10.7359C17.4279 11.7688 17.1826 12.7422 16.7311 13.6594C16.3326 14.4688 15.7107 14.9828 14.8764 15.3313C13.9076 15.7359 12.8545 15.8438 11.7451 15.9047C10.8951 15.9516 10.0436 15.9828 9.19199 16C8.97793 16.0047 8.76856 16.0609 8.62012 16.1703C8.47168 16.2797 8.40449 16.3813 8.31231 16.4813C7.84356 16.9938 6.90918 17.8953 6.39981 18.3891C6.39668 17.7922 6.39199 17.0703 6.39981 16.4047C6.40293 16.2 6.35606 15.9906 6.23887 15.825C6.12168 15.6594 5.96074 15.5594 5.80606 15.4875C5.35449 15.2781 4.76387 15.1188 4.50762 14.9578C3.61231 14.3953 3.10449 13.5516 2.80293 12.5016C2.40762 11.1281 2.33262 9.71407 2.44981 8.27501C2.51231 7.52813 2.62012 6.77969 2.75606 6.03751C3.04043 4.47344 3.93418 3.48907 5.35606 2.83594C6.25449 2.42344 7.21387 2.22032 8.22481 2.09688C8.91387 2.01251 9.60293 1.98594 10.2936 2.00626ZM10.4623 4.00001C10.1326 4.00001 9.81231 4.03751 9.50137 4.10626C9.28731 4.15626 9.15137 4.37032 9.19981 4.58594C9.24824 4.80157 9.46387 4.93594 9.67949 4.88751C9.93106 4.82969 10.1936 4.80001 10.4623 4.80001C12.4154 4.80001 13.9904 6.37501 13.9904 8.32657C13.9904 8.59688 13.9607 8.85938 13.9029 9.11251C13.8545 9.32657 13.9889 9.54219 14.2045 9.59063C14.4201 9.63907 14.6342 9.50313 14.6826 9.28751C14.7529 8.97813 14.7904 8.65782 14.7904 8.32657C14.7904 5.94219 12.8482 4.00001 10.4623 4.00001ZM6.47168 4.80157C6.40606 4.79844 6.33887 4.80313 6.26856 4.81876C5.54199 4.97969 4.82012 5.50626 4.79981 6.44688C4.82012 6.57813 4.81856 6.71876 4.86699 6.83751C5.10449 7.41876 5.31074 8.01876 5.60762 8.56876C7.05293 11.2406 9.23887 13.0984 12.0248 14.2781C12.3576 14.4188 12.7014 14.4484 13.0373 14.3078C13.4998 14.1156 13.892 13.8188 14.1529 13.3922C14.5107 12.8063 14.5154 12.4 13.9264 11.9672C13.5404 11.6828 13.1607 11.3906 12.7701 11.1125C12.1748 10.6906 11.5311 10.6172 11.0873 11.3578C11.0639 11.3953 11.0295 11.4266 10.9998 11.4578C10.7717 11.7 10.492 11.7594 10.1951 11.6375C9.06856 11.1734 8.19824 10.425 7.67324 9.31094C7.36387 8.65626 7.44824 8.32813 8.02637 7.89219C8.08418 7.85001 8.13887 7.80469 8.19199 7.75626C8.44512 7.52501 8.51231 7.25001 8.36231 6.93907C8.02324 6.22969 7.57168 5.59688 6.99981 5.05157C6.84512 4.90469 6.66856 4.81251 6.47168 4.80157ZM10.4561 5.20001C10.2795 5.20001 10.1045 5.21407 9.93262 5.24376C9.78731 5.26251 9.66387 5.35938 9.61074 5.49532C9.55762 5.63282 9.58418 5.78751 9.67793 5.90001C9.77324 6.01094 9.92324 6.06251 10.067 6.03126C10.192 6.01094 10.3232 6.00001 10.4561 6.00001C11.7561 6.00001 12.7998 7.04376 12.7998 8.34376C12.7998 8.47657 12.7889 8.60782 12.7686 8.73282C12.7373 8.87657 12.7889 9.02657 12.8998 9.12188C13.0123 9.21563 13.167 9.2422 13.3045 9.18907C13.4404 9.13594 13.5373 9.01251 13.5561 8.86719C13.5857 8.69532 13.5998 8.52032 13.5998 8.34376C13.5998 6.61251 12.1873 5.20001 10.4561 5.20001ZM10.3998 6.40001C10.2561 6.39844 10.1217 6.47344 10.0482 6.59844C9.97637 6.72344 9.97637 6.87657 10.0482 7.00157C10.1217 7.12657 10.2561 7.20157 10.3998 7.20001C11.067 7.20001 11.5998 7.73282 11.5998 8.40001C11.5982 8.54376 11.6732 8.67813 11.7982 8.75157C11.9232 8.82344 12.0764 8.82344 12.2014 8.75157C12.3264 8.67813 12.4014 8.54376 12.3998 8.40001C12.3998 7.30001 11.4998 6.40001 10.3998 6.40001Z" fill="url(#paint0_linear_230:83)"/>
<defs>
<linearGradient id="paint0_linear_230:83" x1="9.99969" y1="1.1996" x2="9.99969" y2="19.6" gradientUnits="userSpaceOnUse">
<stop stop-color="#5B62FF"/>
<stop offset="1" stop-color="#62AAFF"/>
</linearGradient>
</defs>
</svg>
