<svg width="20" height="20" viewBox="0 0 20 20" fill="none" xmlns="http://www.w3.org/2000/svg">
<path d="M2.1999 2.8C1.2124 2.8 0.40459 3.60625 0.399902 4.59375C0.399902 4.59375 0.399902 4.59532 0.399902 4.59688C0.399902 4.59844 0.399902 4.59844 0.399902 4.6V15.4C0.399902 16.3891 1.21084 17.2 2.1999 17.2H17.7999C18.789 17.2 19.5999 16.3891 19.5999 15.4V4.6C19.5999 4.59844 19.5999 4.59844 19.5999 4.59688C19.5999 4.59532 19.5999 4.59375 19.5999 4.59375C19.5952 3.60625 18.7874 2.8 17.7999 2.8H2.1999ZM3.24053 3.6H16.7608L9.9999 8.3125L3.24053 3.6ZM1.90928 3.64688L9.9999 9.2875L18.0921 3.64688C18.5015 3.77032 18.7968 4.14219 18.7999 4.59532C18.7983 4.67969 18.7124 4.84844 18.5874 4.98438C18.4608 5.12188 18.3374 5.20782 18.3374 5.20782L18.3358 5.21094L9.9999 11.1109L1.66396 5.21094L1.6624 5.20782C1.6624 5.20782 1.53896 5.12188 1.4124 4.98438C1.2874 4.84844 1.20146 4.67969 1.1999 4.59532C1.20303 4.14219 1.49834 3.77032 1.90928 3.64688ZM1.1999 5.86094L1.20303 5.86407L1.20615 5.86563V5.86719L2.3999 6.71094V16.4H2.1999C1.64365 16.4 1.1999 15.9563 1.1999 15.4V5.86094ZM18.7999 5.86094V15.4C18.7999 15.9563 18.3562 16.4 17.7999 16.4H17.5999V6.71094L18.7937 5.86719V5.86563L18.7999 5.86094ZM3.1999 7.27657L9.9999 12.0891L16.7999 7.27657V16.4H3.1999V7.27657Z" fill="url(#paint0_linear_230:86)"/>
<defs>
<linearGradient id="paint0_linear_230:86" x1="9.9999" y1="2.8" x2="9.9999" y2="17.2" gradientUnits="userSpaceOnUse">
<stop stop-color="#5B62FF"/>
<stop offset="1" stop-color="#62AAFF"/>
</linearGradient>
</defs>
</svg>
