<svg width="21" height="21" viewBox="0 0 21 21" fill="none" xmlns="http://www.w3.org/2000/svg">
<path d="M6.71977 1.26C3.70941 1.26 1.25977 3.70964 1.25977 6.72V14.28C1.25977 17.2904 3.70941 19.74 6.71977 19.74H14.2798C17.2901 19.74 19.7398 17.2904 19.7398 14.28V6.72C19.7398 3.70964 17.2901 1.26 14.2798 1.26H6.71977ZM6.71977 2.1H14.2798C16.8361 2.1 18.8998 4.16367 18.8998 6.72V14.28C18.8998 16.8363 16.8361 18.9 14.2798 18.9H6.71977C4.16344 18.9 2.09977 16.8363 2.09977 14.28V6.72C2.09977 4.16367 4.16344 2.1 6.71977 2.1ZM15.5398 4.62C15.0758 4.62 14.6998 4.99608 14.6998 5.46C14.6998 5.92392 15.0758 6.3 15.5398 6.3C16.0037 6.3 16.3798 5.92392 16.3798 5.46C16.3798 4.99608 16.0037 4.62 15.5398 4.62ZM10.4998 5.88C7.95318 5.88 5.87977 7.95342 5.87977 10.5C5.87977 13.0466 7.95318 15.12 10.4998 15.12C13.0463 15.12 15.1198 13.0466 15.1198 10.5C15.1198 7.95342 13.0463 5.88 10.4998 5.88ZM10.4998 6.72C12.5924 6.72 14.2798 8.40739 14.2798 10.5C14.2798 12.5926 12.5924 14.28 10.4998 14.28C8.40715 14.28 6.71977 12.5926 6.71977 10.5C6.71977 8.40739 8.40715 6.72 10.4998 6.72Z" fill="url(#paint0_linear_230:78)"/>
<defs>
<linearGradient id="paint0_linear_230:78" x1="10.4998" y1="1.26" x2="10.4998" y2="19.74" gradientUnits="userSpaceOnUse">
<stop stop-color="#5B62FF"/>
<stop offset="1" stop-color="#62AAFF"/>
</linearGradient>
</defs>
</svg>
