<svg width="20" height="20" viewBox="0 0 20 20" fill="none" xmlns="http://www.w3.org/2000/svg">
<path d="M3.6001 1.6C2.50029 1.6 1.6001 2.50019 1.6001 3.6V16.4C1.6001 17.4998 2.50029 18.4 3.6001 18.4H10.3329C10.3761 18.4071 10.4202 18.4071 10.4634 18.4H12.7329C12.7761 18.4071 12.8202 18.4071 12.8634 18.4H16.4001C17.4999 18.4 18.4001 17.4998 18.4001 16.4V3.6C18.4001 2.50019 17.4999 1.6 16.4001 1.6H3.6001ZM3.6001 2.4H16.4001C17.0675 2.4 17.6001 2.93261 17.6001 3.6V16.4C17.6001 17.0674 17.0675 17.6 16.4001 17.6H13.2001V12H14.7282L15.2884 9.2H13.2001V8.4C13.2001 8.177 13.2213 8.15957 13.2962 8.11094C13.3711 8.0623 13.6024 8 14.0001 8H15.2001V5.74766L14.972 5.63906C14.972 5.63906 14.0532 5.2 12.8001 5.2C11.9001 5.2 11.1607 5.55858 10.6876 6.15C10.2145 6.74142 10.0001 7.53333 10.0001 8.4V9.2H8.8001V12H10.0001V17.6H3.6001C2.9327 17.6 2.4001 17.0674 2.4001 16.4V3.6C2.4001 2.93261 2.9327 2.4 3.6001 2.4ZM12.8001 6C13.6317 6 14.155 6.18338 14.4001 6.28047V7.2H14.0001C13.5398 7.2 13.1709 7.23808 12.8603 7.43984C12.5496 7.64161 12.4001 8.0246 12.4001 8.4V10H14.3118L14.072 11.2H12.4001V17.6H10.8001V11.2H9.6001V10H10.8001V8.4C10.8001 7.66667 10.9857 7.05858 11.3126 6.65C11.6395 6.24142 12.1001 6 12.8001 6Z" fill="url(#paint0_linear_230:76)"/>
<defs>
<linearGradient id="paint0_linear_230:76" x1="10.0001" y1="1.6" x2="10.0001" y2="18.4054" gradientUnits="userSpaceOnUse">
<stop stop-color="#5B62FF"/>
<stop offset="1" stop-color="#62AAFF"/>
</linearGradient>
</defs>
</svg>
